<svg id="Capa_1" data-name="Capa 1" xmlns="http://www.w3.org/2000/svg" viewBox="0 0 147.09 157.2"><defs><style>.cls-1{fill:none;stroke:#1d1d1b;stroke-miterlimit:10;stroke-width:5px;}</style></defs><title>iconomazosvg-03</title><path class="cls-1" d="M80,147.8l-54.27-4.24A18.7,18.7,0,0,1,7,124.86V27A18.7,18.7,0,0,1,25.74,8.31l55.15,1"/><path class="cls-1" d="M86.31,150.42l-54.81-9a18.69,18.69,0,0,1-17.39-19.91l6.6-97.64A18.7,18.7,0,0,1,40.63,6.51l53.84,5.77"/><path class="cls-1" d="M93.77,151.63,36.58,142.4a18.68,18.68,0,0,1-15.75-21.24l14.35-96.8A18.69,18.69,0,0,1,56.41,8.61l14.37-.69"/><rect class="cls-1" x="37.36" y="12.02" width="95.34" height="135.26" rx="18.7" transform="translate(22.16 -18.44) rotate(14.21)"/></svg>