<svg id="Capa_1" data-name="Capa 1" xmlns="http://www.w3.org/2000/svg" viewBox="0 0 348.71 299.42"><defs><style>.cls-1{fill:#1d1d1b;}</style></defs><title>LOGODESCONOCIDOS</title><path class="cls-1" d="M22,154.61V133.19h5.91q5.67,0,8.49,2.61c1.89,1.73,2.83,4.35,2.83,7.83a10.51,10.51,0,0,1-3.14,8,11.7,11.7,0,0,1-8.42,3Zm2.51-19.15v16.88h3.19a9,9,0,0,0,6.56-2.26,8.46,8.46,0,0,0,2.35-6.39q0-4.12-2.19-6.18c-1.46-1.36-3.65-2-6.57-2Z"/><path class="cls-1" d="M54.75,154.61H43.4V133.19H54.27v2.27H45.91v7.13h7.73v2.25H45.91v7.5h8.84Z"/><path class="cls-1" d="M57,153l1.22-1.89a10.09,10.09,0,0,0,2.63,1.24,10.83,10.83,0,0,0,3.06.39,5.27,5.27,0,0,0,3.22-.92,3.1,3.1,0,0,0,1.26-2.68,3.19,3.19,0,0,0-1.06-2.51,11.52,11.52,0,0,0-3.51-1.82,13.1,13.1,0,0,1-4.47-2.46,4.71,4.71,0,0,1-1.46-3.6,5.35,5.35,0,0,1,1.89-4.26,7.33,7.33,0,0,1,5-1.63,12.6,12.6,0,0,1,2.81.31,13.31,13.31,0,0,1,2.83,1l-.94,2a11.41,11.41,0,0,0-2.38-.82,11.56,11.56,0,0,0-2.5-.26,4.7,4.7,0,0,0-3.05.91,3,3,0,0,0-1.12,2.5,2.77,2.77,0,0,0,1,2.24,12.48,12.48,0,0,0,3.44,1.7,12.45,12.45,0,0,1,4.63,2.6,5.31,5.31,0,0,1,1.4,3.87A5.65,5.65,0,0,1,69,153.23,7.5,7.5,0,0,1,63.75,155,11.63,11.63,0,0,1,57,153Z"/><path class="cls-1" d="M102.46,152.87a13.46,13.46,0,0,1-4.73,5.72,12.37,12.37,0,0,1-7.23,2.22,14.24,14.24,0,0,1-10.78-4.23q-4.05-4.23-4-12,0-8,4-12.8A12.89,12.89,0,0,1,90.06,127a12.16,12.16,0,0,1,7.61,2.31,14.69,14.69,0,0,1,4.63,6.38l-5.77,2.44A7.76,7.76,0,0,0,94,134.53a6.37,6.37,0,0,0-3.82-1.11,6.53,6.53,0,0,0-5.5,3,12.77,12.77,0,0,0-2.16,7.65q0,4.91,2.22,7.55a7.44,7.44,0,0,0,6,2.64,6.23,6.23,0,0,0,3.66-1.09,7,7,0,0,0,2.44-3.24Z"/><path class="cls-1" d="M118.44,160.81a13,13,0,0,1-10.26-4.57q-4-4.58-4-11.92,0-7.75,4.07-12.54A13.31,13.31,0,0,1,118.9,127a12.73,12.73,0,0,1,10.15,4.58q3.93,4.59,3.92,12.09,0,7.71-4.06,12.43A13.17,13.17,0,0,1,118.44,160.81Zm.12-6.45a6.55,6.55,0,0,0,5.48-2.73q2.08-2.73,2.08-7.56,0-5-2-7.84a6.3,6.3,0,0,0-5.39-2.81,6.6,6.6,0,0,0-5.58,2.88,12.63,12.63,0,0,0-2.12,7.63,12.38,12.38,0,0,0,2.12,7.62A6.52,6.52,0,0,0,118.56,154.36Z"/><path class="cls-1" d="M163.37,160.24H156.8l-11.91-20.18c-.34-.61-.62-1.14-.85-1.59a12.33,12.33,0,0,1-.52-1.13h-.08c0,.57,0,1.29.06,2.17s0,1.92,0,3.12v17.61h-6.15v-32.7h7l11.47,19.54.72,1.34c.23.44.45.89.65,1.33h.41a3.31,3.31,0,0,1-.39-1.7c0-.75,0-1.68,0-2.79V127.54h6.15Z"/><path class="cls-1" d="M182,160.81a13,13,0,0,1-10.25-4.57q-4-4.58-4-11.92,0-7.75,4.08-12.54A13.28,13.28,0,0,1,182.5,127a12.76,12.76,0,0,1,10.15,4.58q3.91,4.59,3.92,12.09,0,7.71-4.06,12.43A13.18,13.18,0,0,1,182,160.81Zm.13-6.45a6.56,6.56,0,0,0,5.48-2.73q2.07-2.73,2.07-7.56,0-5-2-7.84a6.29,6.29,0,0,0-5.38-2.81,6.62,6.62,0,0,0-5.59,2.88,12.63,12.63,0,0,0-2.11,7.63,12.38,12.38,0,0,0,2.11,7.62A6.52,6.52,0,0,0,182.16,154.36Z"/><path class="cls-1" d="M225.94,152.87a13.54,13.54,0,0,1-4.73,5.72,12.37,12.37,0,0,1-7.23,2.22q-6.73,0-10.78-4.23t-4-12q0-8,4-12.8a12.89,12.89,0,0,1,10.39-4.8,12.16,12.16,0,0,1,7.61,2.31,14.6,14.6,0,0,1,4.62,6.38L220,138.12a7.76,7.76,0,0,0-2.53-3.59,6.37,6.37,0,0,0-3.82-1.11,6.53,6.53,0,0,0-5.5,3,12.77,12.77,0,0,0-2.16,7.65q0,4.91,2.22,7.55a7.43,7.43,0,0,0,6,2.64,6.24,6.24,0,0,0,3.67-1.09,7,7,0,0,0,2.44-3.24Z"/><path class="cls-1" d="M237.08,160.24h-6.51v-32.7h6.51Z"/><path class="cls-1" d="M243.25,160.24v-32.7h10.24q7.69,0,11.55,4t3.85,12q0,7.64-4.2,12.2a14.52,14.52,0,0,1-11.2,4.56Zm6.51-26.59v20.48H253a8.26,8.26,0,0,0,6.64-2.84,11.58,11.58,0,0,0,2.41-7.72,10.49,10.49,0,0,0-2.39-7.28,8.58,8.58,0,0,0-6.7-2.64Z"/><path class="cls-1" d="M285.74,160.81a13,13,0,0,1-10.26-4.57q-4-4.58-4-11.92,0-7.75,4.07-12.54A13.31,13.31,0,0,1,286.2,127a12.73,12.73,0,0,1,10.15,4.58q3.93,4.59,3.92,12.09,0,7.71-4.06,12.43A13.17,13.17,0,0,1,285.74,160.81Zm.12-6.45a6.55,6.55,0,0,0,5.48-2.73q2.09-2.73,2.08-7.56,0-5-2-7.84a6.27,6.27,0,0,0-5.38-2.81,6.6,6.6,0,0,0-5.58,2.88,12.63,12.63,0,0,0-2.12,7.63,12.38,12.38,0,0,0,2.12,7.62A6.52,6.52,0,0,0,285.86,154.36Z"/><path class="cls-1" d="M303.22,153.83l5.48-3.24a7,7,0,0,0,2.43,3.13,5.79,5.79,0,0,0,3.29,1,4.77,4.77,0,0,0,3.27-.95,3.31,3.31,0,0,0,1.07-2.61,3.35,3.35,0,0,0-1.16-2.69,8.44,8.44,0,0,0-3.66-1.5q-4.8-1-7.05-3.37a8.81,8.81,0,0,1-2.24-6.39,9.81,9.81,0,0,1,2.9-7.44,11.82,11.82,0,0,1,13.34-1.3,10.12,10.12,0,0,1,3.83,4.24l-5.36,3.13a6,6,0,0,0-1.83-2.25,4.71,4.71,0,0,0-2.66-.69,4.18,4.18,0,0,0-2.92.93,3,3,0,0,0-1,2.35,2.9,2.9,0,0,0,1,2.31,8.6,8.6,0,0,0,3.77,1.43,12.63,12.63,0,0,1,7,3.45,9.66,9.66,0,0,1,2.34,6.84,10.69,10.69,0,0,1-2.76,7.74c-1.84,1.91-4.46,2.86-7.88,2.86a12.4,12.4,0,0,1-6.68-1.84A11.31,11.31,0,0,1,303.22,153.83Z"/><path class="cls-1" d="M18.69,144.79v-2.2H71.86v2.2Z"/></svg>