<svg id="Capa_1" data-name="Capa 1" xmlns="http://www.w3.org/2000/svg" viewBox="0 0 310.96 41.56"><defs><style>.cls-1{fill:#1d1d1b;}</style></defs><title>LOGODESCONOCIDOS-02</title><path class="cls-1" d="M3.26,32.41V11H9.17q5.67,0,8.49,2.61t2.83,7.83a10.51,10.51,0,0,1-3.14,8,11.7,11.7,0,0,1-8.42,3ZM5.77,13.26V30.14H9a9,9,0,0,0,6.56-2.26,8.45,8.45,0,0,0,2.34-6.39c0-2.75-.72-4.81-2.18-6.18S12,13.26,9.11,13.26Z"/><path class="cls-1" d="M36.06,32.41H24.71V11H35.58v2.27H27.21v7.12H35v2.26H27.21v7.5h8.85Z"/><path class="cls-1" d="M38.33,30.76l1.22-1.88a10.09,10.09,0,0,0,2.63,1.24,10.83,10.83,0,0,0,3.06.39,5.34,5.34,0,0,0,3.22-.92,3.1,3.1,0,0,0,1.26-2.68,3.17,3.17,0,0,0-1.07-2.51,11.23,11.23,0,0,0-3.5-1.82,13.1,13.1,0,0,1-4.47-2.46,4.71,4.71,0,0,1-1.46-3.6,5.34,5.34,0,0,1,1.89-4.26,7.33,7.33,0,0,1,5-1.63,12.6,12.6,0,0,1,2.81.31,13.31,13.31,0,0,1,2.83,1l-.94,2a11.41,11.41,0,0,0-2.38-.82,11.63,11.63,0,0,0-2.5-.26,4.68,4.68,0,0,0-3,.91,3,3,0,0,0-1.12,2.5,2.77,2.77,0,0,0,1,2.24,12.34,12.34,0,0,0,3.44,1.7,12.45,12.45,0,0,1,4.63,2.6,5.3,5.3,0,0,1,1.4,3.87A5.69,5.69,0,0,1,50.35,31a7.51,7.51,0,0,1-5.29,1.74,12.28,12.28,0,0,1-3.52-.48A12,12,0,0,1,38.33,30.76Z"/><path class="cls-1" d="M83.77,30.67A13.54,13.54,0,0,1,79,36.39a12.37,12.37,0,0,1-7.23,2.22A14.24,14.24,0,0,1,61,34.38Q57,30.15,57,22.39q0-8,4-12.8a12.89,12.89,0,0,1,10.39-4.8A12.16,12.16,0,0,1,79,7.1a14.6,14.6,0,0,1,4.62,6.38l-5.76,2.44a7.76,7.76,0,0,0-2.53-3.59,6.37,6.37,0,0,0-3.82-1.11,6.53,6.53,0,0,0-5.5,3,12.77,12.77,0,0,0-2.16,7.65q0,4.9,2.22,7.55a7.44,7.44,0,0,0,6,2.64A6.23,6.23,0,0,0,75.72,31a7,7,0,0,0,2.44-3.24Z"/><path class="cls-1" d="M99.75,38.61A13,13,0,0,1,89.49,34q-4-4.58-4-11.92,0-7.76,4.07-12.54a13.31,13.31,0,0,1,10.66-4.79,12.73,12.73,0,0,1,10.15,4.58q3.93,4.59,3.92,12.09,0,7.71-4.06,12.43A13.17,13.17,0,0,1,99.75,38.61Zm.12-6.45a6.55,6.55,0,0,0,5.48-2.73q2.09-2.73,2.08-7.56,0-5-2-7.85a6.29,6.29,0,0,0-5.38-2.8,6.6,6.6,0,0,0-5.58,2.88,12.63,12.63,0,0,0-2.12,7.63,12.38,12.38,0,0,0,2.12,7.62A6.52,6.52,0,0,0,99.87,32.16Z"/><path class="cls-1" d="M144.68,38h-6.57L126.2,17.86c-.34-.61-.62-1.14-.85-1.59s-.4-.82-.53-1.13h-.08c0,.56.05,1.29.06,2.17s0,1.92,0,3.12V38h-6.14V5.34h7l11.47,19.54.72,1.33c.23.45.45.9.65,1.34h.4a3.31,3.31,0,0,1-.38-1.7c0-.75,0-1.68,0-2.79V5.34h6.15Z"/><path class="cls-1" d="M163.34,38.61A13,13,0,0,1,153.08,34q-4-4.58-4-11.92,0-7.76,4.07-12.54a13.31,13.31,0,0,1,10.67-4.79A12.76,12.76,0,0,1,174,9.37q3.91,4.59,3.92,12.09,0,7.71-4.06,12.43A13.18,13.18,0,0,1,163.34,38.61Zm.12-6.45A6.57,6.57,0,0,0,169,29.43Q171,26.7,171,21.87q0-5-2-7.85a6.31,6.31,0,0,0-5.38-2.8A6.6,6.6,0,0,0,158,14.1a12.63,12.63,0,0,0-2.11,7.63A12.38,12.38,0,0,0,158,29.35,6.52,6.52,0,0,0,163.46,32.16Z"/><path class="cls-1" d="M207.24,30.67a13.44,13.44,0,0,1-4.72,5.72,12.37,12.37,0,0,1-7.23,2.22q-6.73,0-10.78-4.23t-4-12q0-8,4-12.8a12.89,12.89,0,0,1,10.39-4.8,12.16,12.16,0,0,1,7.61,2.31,14.6,14.6,0,0,1,4.62,6.38l-5.76,2.44a7.76,7.76,0,0,0-2.53-3.59A6.37,6.37,0,0,0,195,11.22a6.51,6.51,0,0,0-5.5,3,12.77,12.77,0,0,0-2.16,7.65q0,4.9,2.22,7.55a7.43,7.43,0,0,0,6,2.64A6.26,6.26,0,0,0,199.2,31a7,7,0,0,0,2.44-3.24Z"/><path class="cls-1" d="M218.39,38h-6.51V5.34h6.51Z"/><path class="cls-1" d="M224.56,38V5.34H234.8q7.69,0,11.55,4t3.85,12q0,7.63-4.2,12.2A14.52,14.52,0,0,1,234.8,38Zm6.51-26.59V31.93h3.22a8.27,8.27,0,0,0,6.65-2.84,11.58,11.58,0,0,0,2.4-7.72A10.48,10.48,0,0,0,241,14.09a8.6,8.6,0,0,0-6.71-2.64Z"/><path class="cls-1" d="M267.05,38.61A13,13,0,0,1,256.79,34q-4-4.58-4-11.92,0-7.76,4.07-12.54a13.29,13.29,0,0,1,10.66-4.79,12.75,12.75,0,0,1,10.15,4.58q3.91,4.59,3.92,12.09,0,7.71-4.06,12.43A13.17,13.17,0,0,1,267.05,38.61Zm.12-6.45a6.55,6.55,0,0,0,5.48-2.73q2.09-2.73,2.08-7.56,0-5-2-7.85a6.29,6.29,0,0,0-5.38-2.8,6.6,6.6,0,0,0-5.58,2.88,12.63,12.63,0,0,0-2.12,7.63,12.38,12.38,0,0,0,2.12,7.62A6.52,6.52,0,0,0,267.17,32.16Z"/><path class="cls-1" d="M284.52,31.63,290,28.39a6.93,6.93,0,0,0,2.43,3.13,5.79,5.79,0,0,0,3.29,1,4.84,4.84,0,0,0,3.27-1A3.31,3.31,0,0,0,300.07,29a3.35,3.35,0,0,0-1.16-2.69,8.5,8.5,0,0,0-3.66-1.5q-4.8-1.05-7.05-3.37A8.77,8.77,0,0,1,286,15a9.81,9.81,0,0,1,2.9-7.44,11.82,11.82,0,0,1,13.34-1.3A10.19,10.19,0,0,1,306,10.51l-5.36,3.13a6,6,0,0,0-1.83-2.25,4.73,4.73,0,0,0-2.67-.7,4.17,4.17,0,0,0-2.91.94,3.05,3.05,0,0,0-1,2.35,2.91,2.91,0,0,0,1,2.31A8.54,8.54,0,0,0,297,17.72a12.63,12.63,0,0,1,7,3.45A9.65,9.65,0,0,1,306.31,28a10.69,10.69,0,0,1-2.76,7.75q-2.76,2.86-7.88,2.86A12.4,12.4,0,0,1,289,36.77,11.39,11.39,0,0,1,284.52,31.63Z"/><path class="cls-1" d="M0,22.59v-2.2H53.17v2.2Z"/></svg>