<svg id="Capa_1" data-name="Capa 1" xmlns="http://www.w3.org/2000/svg" viewBox="0 0 264.71 198.87"><defs><style>.cls-1,.cls-3{fill:none;stroke:#1d1d1b;stroke-miterlimit:10;stroke-width:6px;}.cls-1{stroke-linecap:round;}.cls-2{fill:#1d1d1b;}</style></defs><title>ICONOMAZOCONOCIMIENTO</title><line class="cls-1" x1="53.41" y1="82.14" x2="4.13" y2="82.14"/><line class="cls-1" x1="10.6" y1="46.17" x2="59.88" y2="46.17"/><line class="cls-1" x1="60.06" y1="46.07" x2="86.85" y2="10.95"/><line class="cls-1" x1="87.14" y1="10.72" x2="121.59" y2="5.18"/><line class="cls-1" x1="156.17" y1="5.28" x2="121.63" y2="5.19"/><path class="cls-1" d="M129.19,5.24h26.19c3.37,0,6.09,2.28,6.09,5.11h0c0,2.82-2.72,5.11-6.09,5.11H129.19"/><path class="cls-1" d="M131.36,15.46h28.35c3.37,0,6.09,2.28,6.09,5.1h0c0,2.83-2.72,5.11-6.09,5.11H131.36"/><path class="cls-1" d="M123.81,25.67h31.57c3.37,0,6.09,2.29,6.09,5.11h0c0,2.83-2.72,5.11-6.09,5.11l-39.57-.54"/><path class="cls-1" d="M149.16,35.85c3.37,0,6.1,2.29,6.1,5.11h0c0,2.82-2.73,5.11-6.1,5.11l-39-.17"/><path class="cls-1" d="M93.46,68.62c-8.68,11.27-20.95,13.52-40,13.52"/><line class="cls-1" x1="93.46" y1="68.55" x2="129.19" y2="15.46"/><path class="cls-1" d="M102.88,33l13.33-19.37c1.58-2.3,5.23-3,8.14-1.61h0c2.91,1.41,4,4.42,2.41,6.72L113.36,39"/><line class="cls-1" x1="210.49" y1="116.22" x2="259.76" y2="115.85"/><line class="cls-1" x1="253.57" y1="151.86" x2="204.29" y2="152.23"/><line class="cls-1" x1="204.11" y1="152.34" x2="177.59" y2="187.66"/><line class="cls-1" x1="177.3" y1="187.89" x2="142.89" y2="193.7"/><line class="cls-1" x1="108.31" y1="193.85" x2="142.85" y2="193.68"/><path class="cls-1" d="M135.29,193.69l-26.19.2c-3.37,0-6.11-2.24-6.13-5.06h0c0-2.82,2.69-5.13,6-5.16l26.19-.2"/><path class="cls-1" d="M133,183.49l-28.35.21c-3.36,0-6.11-2.24-6.13-5.06h0c0-2.82,2.69-5.13,6-5.15l28.36-.22"/><path class="cls-1" d="M140.52,173.21l-31.58.24c-3.36,0-6.1-2.24-6.13-5.06h0c0-2.82,2.69-5.13,6.06-5.16l39.57.25"/><path class="cls-1" d="M115.09,163.23c-3.37,0-6.11-2.24-6.13-5.06h0c0-2.83,2.68-5.13,6.05-5.16l39-.12"/><path class="cls-1" d="M170.54,130c8.6-11.33,20.84-13.68,40-13.82"/><line class="cls-1" x1="170.54" y1="130.11" x2="135.21" y2="183.47"/><path class="cls-1" d="M161.39,165.71,148.2,185.18c-1.56,2.31-5.2,3.06-8.12,1.67h0c-2.93-1.39-4-4.39-2.46-6.7l13.25-20.33"/><rect class="cls-1" x="119.7" y="76.29" width="38.38" height="36.69"/><rect class="cls-1" x="110.3" y="76.29" width="9.4" height="36.69"/><rect class="cls-1" x="157.67" y="76.29" width="9.4" height="36.69"/><rect class="cls-2" x="107.73" y="70.46" width="14.54" height="5.07" rx="2.53"/><rect class="cls-2" x="107.73" y="112.98" width="14.54" height="5.07" rx="2.53"/><rect class="cls-2" x="155.1" y="70.84" width="14.54" height="5.07" rx="2.53"/><rect class="cls-2" x="155.1" y="113.35" width="14.54" height="5.07" rx="2.53"/><path class="cls-3" d="M112.77,72.3V68.63c0-1.63,1-2.95,2.18-2.95h0c1.21,0,2.19,1.32,2.19,2.95V72.3"/><path class="cls-3" d="M160.64,72.3V68.63c0-1.63,1-2.95,2.18-2.95h0C164,65.68,165,67,165,68.63V72.3"/><path class="cls-3" d="M112.76,116.16v3.67c0,1.63,1,3,2.19,2.94h0c1.21,0,2.18-1.33,2.18-3l0-3.67"/><path class="cls-3" d="M160.63,115.91v3.67c0,1.63,1,2.94,2.19,2.94h0c1.2,0,2.18-1.33,2.17-3v-3.67"/><rect class="cls-2" x="124.57" y="81.91" width="27.75" height="3.62"/><rect class="cls-2" x="125.01" y="88.81" width="27.75" height="3.62"/><rect class="cls-2" x="124.35" y="96.06" width="27.75" height="3.62"/><rect class="cls-2" x="124.79" y="102.96" width="27.75" height="3.62"/></svg>