<svg id="Capa_1" data-name="Capa 1" xmlns="http://www.w3.org/2000/svg" viewBox="0 0 264.71 198.87"><defs><style>.cls-1{fill:none;stroke:#1d1d1b;stroke-linecap:round;stroke-miterlimit:10;stroke-width:6px;}.cls-2{fill:#d13e16;}.cls-3{fill:#df591a;}.cls-4{fill:#fdce0a;}</style></defs><title>iconomazopicante</title><line class="cls-1" x1="53.41" y1="82.14" x2="4.13" y2="82.14"/><line class="cls-1" x1="10.6" y1="46.17" x2="59.88" y2="46.17"/><line class="cls-1" x1="60.06" y1="46.07" x2="86.85" y2="10.95"/><line class="cls-1" x1="87.14" y1="10.72" x2="121.59" y2="5.18"/><line class="cls-1" x1="156.17" y1="5.28" x2="121.63" y2="5.19"/><path class="cls-1" d="M129.19,5.24h26.19c3.37,0,6.09,2.28,6.09,5.11h0c0,2.82-2.72,5.11-6.09,5.11H129.19"/><path class="cls-1" d="M131.36,15.46h28.35c3.37,0,6.09,2.28,6.09,5.1h0c0,2.83-2.72,5.11-6.09,5.11H131.36"/><path class="cls-1" d="M123.81,25.67h31.57c3.37,0,6.09,2.29,6.09,5.11h0c0,2.83-2.72,5.11-6.09,5.11l-39.57-.54"/><path class="cls-1" d="M149.16,35.85c3.37,0,6.1,2.29,6.1,5.11h0c0,2.82-2.73,5.11-6.1,5.11l-39-.17"/><path class="cls-1" d="M93.46,68.62c-8.68,11.27-20.95,13.52-40,13.52"/><line class="cls-1" x1="93.46" y1="68.55" x2="129.19" y2="15.46"/><path class="cls-1" d="M102.88,33l13.33-19.37c1.58-2.3,5.23-3,8.14-1.61h0c2.91,1.41,4,4.42,2.41,6.72L113.36,39"/><line class="cls-1" x1="210.49" y1="116.22" x2="259.76" y2="115.85"/><line class="cls-1" x1="253.57" y1="151.86" x2="204.29" y2="152.23"/><line class="cls-1" x1="204.11" y1="152.34" x2="177.59" y2="187.66"/><line class="cls-1" x1="177.3" y1="187.89" x2="142.89" y2="193.7"/><line class="cls-1" x1="108.31" y1="193.85" x2="142.85" y2="193.68"/><path class="cls-1" d="M135.29,193.69l-26.19.2c-3.37,0-6.11-2.24-6.13-5.06h0c0-2.82,2.69-5.13,6-5.16l26.19-.2"/><path class="cls-1" d="M133,183.49l-28.35.21c-3.36,0-6.11-2.24-6.13-5.06h0c0-2.82,2.69-5.13,6-5.15l28.36-.22"/><path class="cls-1" d="M140.52,173.21l-31.58.24c-3.36,0-6.1-2.24-6.13-5.06h0c0-2.82,2.69-5.13,6.06-5.16l39.57.25"/><path class="cls-1" d="M115.09,163.23c-3.37,0-6.11-2.24-6.13-5.06h0c0-2.83,2.68-5.13,6.05-5.16l39-.12"/><path class="cls-1" d="M170.54,130c8.6-11.33,20.84-13.68,40-13.82"/><line class="cls-1" x1="170.54" y1="130.11" x2="135.21" y2="183.47"/><path class="cls-1" d="M161.39,165.71,148.2,185.18c-1.56,2.31-5.2,3.06-8.12,1.67h0c-2.93-1.39-4-4.39-2.46-6.7l13.25-20.33"/><path class="cls-2" d="M98.29,106.35a19.7,19.7,0,0,0,1,11.66,23.69,23.69,0,0,0,7.06,8.91,35.68,35.68,0,0,0,47.6-.29,23.73,23.73,0,0,0,6.41-24c-1.73-5.46-5.94-10.37-14.36-20.18a39.52,39.52,0,0,1-6.89-12.83,8.75,8.75,0,0,1-.24-5.39c.52-1.58,1.36-2.28,1.07-2.55-.72-.66-7.73,1.9-12.11,6.47-7.6,7.92-5.13,19.68-6.53,19.69-.57,0-.63-1.94-2.85-4.7-1.24-1.56-3.13-3.32-3.79-3-.42.18,0,1-.12,2.35,0,.48-.24,1.83-2.26,4.41a25.56,25.56,0,0,1-4,4.11C104.78,93.73,99.76,99.68,98.29,106.35Z"/><path class="cls-3" d="M108.89,112.08a12.73,12.73,0,0,0,.65,7.52,15.21,15.21,0,0,0,4.55,5.74,23,23,0,0,0,30.67-.19,15.29,15.29,0,0,0,4.13-15.47c-1.11-3.52-3.83-6.68-9.25-13a25.42,25.42,0,0,1-4.44-8.27,5.57,5.57,0,0,1-.15-3.47c.33-1,.87-1.47.68-1.64-.46-.43-5,1.23-7.8,4.17-4.89,5.11-3.3,12.68-4.2,12.69-.37,0-.41-1.25-1.84-3-.81-1-2-2.14-2.45-2-.27.11,0,.64-.07,1.51a5.62,5.62,0,0,1-1.46,2.85,16.85,16.85,0,0,1-2.6,2.65A19.14,19.14,0,0,0,108.89,112.08Z"/><path class="cls-4" d="M117.28,113.85a7.38,7.38,0,0,0,.39,4.39,8.86,8.86,0,0,0,2.65,3.35,13.44,13.44,0,0,0,17.91-.11,8.92,8.92,0,0,0,2.41-9c-.65-2.06-2.23-3.9-5.4-7.6a14.86,14.86,0,0,1-2.59-4.82,3.28,3.28,0,0,1-.09-2c.19-.6.51-.86.4-1-.27-.25-2.91.72-4.56,2.43-2.85,3-1.93,7.41-2.45,7.41-.22,0-.24-.73-1.07-1.77-.47-.58-1.18-1.25-1.43-1.14s0,.37,0,.88a3.25,3.25,0,0,1-.85,1.66,9.4,9.4,0,0,1-1.52,1.55A11.29,11.29,0,0,0,117.28,113.85Z"/></svg>