<svg id="Capa_1" data-name="Capa 1" xmlns="http://www.w3.org/2000/svg" viewBox="0 0 264.71 198.87"><defs><style>.cls-1,.cls-2{fill:none;stroke-linecap:round;stroke-miterlimit:10;}.cls-1{stroke:#1d1d1b;stroke-width:6px;}.cls-2{stroke:#e5241e;}</style></defs><title>ICONOMAZORELACIONES</title><line class="cls-1" x1="53.41" y1="82.14" x2="4.13" y2="82.14"/><line class="cls-1" x1="10.6" y1="46.17" x2="59.88" y2="46.17"/><line class="cls-1" x1="60.06" y1="46.07" x2="86.85" y2="10.95"/><line class="cls-1" x1="87.14" y1="10.72" x2="121.59" y2="5.18"/><line class="cls-1" x1="156.17" y1="5.28" x2="121.63" y2="5.19"/><path class="cls-1" d="M129.19,5.24h26.19c3.37,0,6.09,2.28,6.09,5.11h0c0,2.82-2.72,5.11-6.09,5.11H129.19"/><path class="cls-1" d="M131.36,15.46h28.35c3.37,0,6.09,2.28,6.09,5.1h0c0,2.83-2.72,5.11-6.09,5.11H131.36"/><path class="cls-1" d="M123.81,25.67h31.57c3.37,0,6.09,2.29,6.09,5.11h0c0,2.83-2.72,5.11-6.09,5.11l-39.57-.54"/><path class="cls-1" d="M149.16,35.85c3.37,0,6.1,2.29,6.1,5.11h0c0,2.82-2.73,5.11-6.1,5.11l-39-.17"/><path class="cls-1" d="M93.46,68.62c-8.68,11.27-20.95,13.52-40,13.52"/><line class="cls-1" x1="93.46" y1="68.55" x2="129.19" y2="15.46"/><path class="cls-1" d="M102.88,33l13.33-19.37c1.58-2.3,5.23-3,8.14-1.61h0c2.91,1.41,4,4.42,2.41,6.72L113.36,39"/><line class="cls-1" x1="210.49" y1="116.22" x2="259.76" y2="115.85"/><line class="cls-1" x1="253.57" y1="151.86" x2="204.29" y2="152.23"/><line class="cls-1" x1="204.11" y1="152.34" x2="177.59" y2="187.66"/><line class="cls-1" x1="177.3" y1="187.89" x2="142.89" y2="193.7"/><line class="cls-1" x1="108.31" y1="193.85" x2="142.85" y2="193.68"/><path class="cls-1" d="M135.29,193.69l-26.19.2c-3.37,0-6.11-2.24-6.13-5.06h0c0-2.82,2.69-5.13,6-5.16l26.19-.2"/><path class="cls-1" d="M133,183.49l-28.35.21c-3.36,0-6.11-2.24-6.13-5.06h0c0-2.82,2.69-5.13,6-5.15l28.36-.22"/><path class="cls-1" d="M140.52,173.21l-31.58.24c-3.36,0-6.1-2.24-6.13-5.06h0c0-2.82,2.69-5.13,6.06-5.16l39.57.25"/><path class="cls-1" d="M115.09,163.23c-3.37,0-6.11-2.24-6.13-5.06h0c0-2.83,2.68-5.13,6.05-5.16l39-.12"/><path class="cls-1" d="M170.54,130c8.6-11.33,20.84-13.68,40-13.82"/><line class="cls-1" x1="170.54" y1="130.11" x2="135.21" y2="183.47"/><path class="cls-1" d="M161.39,165.71,148.2,185.18c-1.56,2.31-5.2,3.06-8.12,1.67h0c-2.93-1.39-4-4.39-2.46-6.7l13.25-20.33"/><path class="cls-2" d="M139.69,26.88c-.94-.62-4.92-3.38-5.21-7.75a11,11,0,0,1,3.63-8c9.84-9.51,61.47,19.12,59,38.28-2.88,21.94-72.75,19.6-78,43.75-3.24,15,24.76,30.57,20.69,39.42-3.29,7.16-21.5-.85-28.56,9.1-4.57,6.44-5.65,18.89.85,26.31,4.72,5.37,12.41,7,19.57,4"/></svg>